<svg id="Layer_1" data-name="Layer 1" xmlns="http://www.w3.org/2000/svg" viewBox="0 0 102 102"><defs><style>.cls-1{fill:none;stroke:#000;stroke-miterlimit:10;}</style></defs><title>smiley</title><circle class="cls-1" cx="51" cy="51" r="50.5"/><path class="cls-1" d="M17.28,63.55a49.77,49.77,0,0,0,29,20.55c8.23,2.07,17.19,1.91,24.92-1.57S85.26,72,86.7,63.6"/><path class="cls-1" d="M14.09,32.23c4,2.11,8.9,4.17,13,2.09,3.26-1.67,4.74-5.43,6-8.89"/><path class="cls-1" d="M63.55,28.36c2.2,4.46,6.62,8,11.58,8.27s10.11-3.13,11-8"/><path class="cls-1" d="M48.09,40.42l-4.2,11.27c-1,2.57-1.79,5.81.13,7.77,1.41,1.45,3.69,1.48,5.7,1.41l10.53-.35"/></svg>