<svg id="Layer_1" data-name="Layer 1" xmlns="http://www.w3.org/2000/svg" viewBox="0 0 109 109"><defs><style>.cls-1{fill:none;stroke:#000;stroke-miterlimit:10;stroke-width:8px;}</style></defs><title>smiley</title><circle class="cls-1" cx="54.5" cy="54.5" r="50.5"/><path class="cls-1" d="M20.78,67.05a49.77,49.77,0,0,0,29,20.55C58.05,89.67,67,89.51,74.74,86s14-10.57,15.46-18.93"/><path class="cls-1" d="M20.83,38.66c4.23,1.7,9.27,3.27,13.09.8,3.08-2,4.18-5.89,5-9.45"/><path class="cls-1" d="M62.61,28.93c.9,4.89,4.19,9.47,8.88,11.12s10.59-.25,12.8-4.7"/><path class="cls-1" d="M51.59,43.92l-4.2,11.27c-1,2.57-1.79,5.81.13,7.77,1.41,1.45,3.69,1.48,5.7,1.41L63.75,64"/></svg>